# xmcd
#
# Track frame offsets:
#	150
#	20994
#	34962
#	51861
#	72394
#	89024
#	107174
#	118187
#	129637
#	146780
#	158506
#	170908
#	184793
#	200091
#	221306
#	235769
#	256950
#	284412
#
# Disc length: 4087
#
# Revision: 1
# Processed by: cddbd v1.5.1PL0 Copyright (c) Steve Scherf et al.
# Submitted via: CDex 1.51
# Normalized: r0:TRMNUM
#
DISCID=1f0ff512
DTITLE=100% musica Cubana - 100% musica Cubana
DYEAR=1900
DGENRE=Salsa
TTITLE0=Pintate los labios- Maria eliades ochoa
TTITLE1=El bodeguero- Aragon
TTITLE2=Colombia- Polo Montanez
TTITLE3=Chan Chan Compay segundo
TTITLE4=Son de la loma
TTITLE5=Punto Cubano Celina Gonzalez
TTITLE6=Que linda es cuba- Ramon Veloz
TTITLE7=LA negra tomasa
TTITLE8=Hasta siempre comandante Carlos P
TTITLE9=A los barrios de Santiago- Compay segundo
TTITLE10=Hechale Salsita
TTITLE11=Maria Cristina Nico Saquito
TTITLE12=Amorosa Guajira- Clara y Mario
TTITLE13=Yolanda Pablo Milanes
TTITLE14=El baile del buey- Cansao Ban Ban
TTITLE15=Guantanamera Tiburon
TTITLE16=Un monton de estrellas- Polo Montanez
TTITLE17=Conga Cubana
EXTD=
EXTT0=
EXTT1=
EXTT2=
EXTT3=
EXTT4=
EXTT5=
EXTT6=
EXTT7=
EXTT8=
EXTT9=
EXTT10=
EXTT11=
EXTT12=
EXTT13=
EXTT14=
EXTT15=
EXTT16=
EXTT17=
PLAYORDER=
